<svg xmlns="http://www.w3.org/2000/svg" viewBox="0 0 512 512">
  <g fill="none" fill-rule="evenodd">
    <path fill="#F6F5F7" d="M0 0H512V512H0z"/>
    <path fill="#2E3035" fill-rule="nonzero" d="M427.554688,122.007812 C418.570268,122.398439 412.059916,123.440096 408.023438,125.132812 C403.986959,126.825529 401.22006,129.950498 399.722656,134.507812 C398.225253,139.065127 397.476562,146.356721 397.476562,156.382812 L397.476562,354.820312 C397.476562,364.846404 398.225253,372.137998 399.722656,376.695312 C401.22006,381.252627 404.019511,384.377596 408.121094,386.070312 C412.222677,387.763029 418.700477,388.804686 427.554688,389.195312 L427.554688,397.203125 C412.710863,396.421871 391.747531,396.03125 364.664062,396.03125 C336.148295,396.03125 315.119859,396.421871 301.578125,397.203125 L301.578125,389.195312 C311.21359,388.804686 318.212218,387.763029 322.574219,386.070312 C326.93622,384.377596 329.930981,381.252627 331.558594,376.695312 C333.186206,372.137998 334,364.846404 334,354.820312 L334,145.640625 L237.515625,397.59375 L231.070312,397.59375 L123.0625,139.976562 L123.0625,331.578125 C123.0625,347.333412 123.908846,358.889286 125.601562,366.246094 C127.294279,373.602901 130.777317,378.973941 136.050781,382.359375 C141.324245,385.744809 149.950461,388.023432 161.929688,389.195312 L161.929688,397.203125 C151.643178,396.421871 137.255301,396.03125 118.765625,396.03125 C104.05201,396.03125 92.463584,396.421871 84,397.203125 L84,389.195312 C92.724002,388.023432 99.1366982,385.77736 103.238281,382.457031 C107.339864,379.136702 110.139315,374.058628 111.636719,367.222656 C113.134122,360.386685 113.882812,350.132881 113.882812,336.460938 L113.882812,156.382812 C113.882812,146.356721 113.134122,139.065127 111.636719,134.507812 C110.139315,129.950498 107.372416,126.825529 103.335938,125.132812 C99.299459,123.440096 92.8542109,122.398439 84,122.007812 L84,114 C92.463584,114.781254 104.05201,115.171875 118.765625,115.171875 C143.244914,115.171875 164.27335,114.781254 181.851562,114 L262.515625,308.335938 L336.34375,115.171875 L364.664062,115.171875 C391.747531,115.171875 412.710863,114.781254 427.554688,114 L427.554688,122.007812 Z"/>
  </g>
</svg>
